<!DOCTYPE svg PUBLIC "-//W3C//DTD SVG 1.1//EN" "http://www.w3.org/Graphics/SVG/1.1/DTD/svg11.dtd">
<!-- Uploaded to: SVG Repo, www.svgrepo.com, Transformed by: SVG Repo Mixer Tools -->
<svg fill="#a13a9e" height="256px" width="256px" version="1.1" id="Capa_1" xmlns="http://www.w3.org/2000/svg" xmlns:xlink="http://www.w3.org/1999/xlink" viewBox="-28.97 -28.97 347.68 347.68" xml:space="preserve" stroke="#a13a9e" transform="matrix(1, 0, 0, 1, 0, 0)rotate(0)" stroke-width="0.0028973700000000007">
<g id="SVGRepo_bgCarrier" stroke-width="0"/>
<g id="SVGRepo_tracerCarrier" stroke-linecap="round" stroke-linejoin="round" stroke="#CCCCCC" stroke-width="2.317896"/>
<g id="SVGRepo_iconCarrier"> <g> <path id="path15063" d="M145.009,0.002c-1.689-0.051-3.273,0.815-4.143,2.264l-30,50c-1.326,2.21-0.609,5.077,1.601,6.403 c0.725,0.435,1.555,0.665,2.401,0.665h25v63.723c-4.527-6.447-10.452-11.952-17.5-16.021c-8.505-4.91-18.003-7.367-27.5-7.367 s-18.995,2.457-27.5,7.367c-15.653,9.037-25.778,25.145-27.295,42.963H14.868c-2.578,0-4.667,2.09-4.667,4.667 c0,0.846,0.23,1.676,0.665,2.401l30,50c1.326,2.21,4.193,2.927,6.403,1.601c0.657-0.394,1.206-0.944,1.601-1.601l30-50 c1.326-2.21,0.609-5.077-1.601-6.403c-0.725-0.435-1.555-0.665-2.401-0.665H50.134c1.483-14.247,9.665-27.046,22.234-34.303 c13.93-8.042,31.07-8.042,45,0c13.93,8.042,22.5,22.886,22.5,38.971v5.398c-10.249,1.496-19.753,7.475-25.311,17.102 c-9.635,16.689-3.878,38.175,12.811,47.811c3.97,2.292,8.212,3.702,12.5,4.312v55.377c-0.096,6.762,10.096,6.762,10,0V229.27 c10.25-1.495,19.752-7.476,25.311-17.104c9.635-16.689,3.878-38.175-12.811-47.811c-3.97-2.292-8.212-3.702-12.5-4.312v-5.377 c0-16.085,8.57-30.928,22.5-38.971c13.93-8.042,31.07-8.042,45,0c12.57,7.257,20.752,20.057,22.234,34.305h-24.734 c-2.578,0-4.667,2.09-4.667,4.667c0,0.846,0.23,1.676,0.665,2.401l30,50c1.326,2.21,4.193,2.927,6.403,1.601 c0.657-0.394,1.206-0.944,1.601-1.601l30-50c1.326-2.21,0.609-5.077-1.601-6.403c-0.725-0.435-1.555-0.665-2.401-0.665h-25.205 c-1.516-17.819-11.641-33.927-27.295-42.965c-8.505-4.91-18.003-7.365-27.5-7.365s-18.995,2.455-27.5,7.365 c-7.048,4.069-12.973,9.575-17.5,16.021V59.334h25c2.578,0,4.667-2.09,4.667-4.667c0-0.846-0.23-1.676-0.665-2.401l-30-50 C148.053,0.903,146.598,0.05,145.009,0.002z M144.868,13.738L166.626,50h-43.516L144.868,13.738z M144.995,26.139 c-0.912-0.039-1.773,0.422-2.246,1.203l-10,16c-0.763,1.151-0.448,2.703,0.703,3.465c1.151,0.763,2.703,0.448,3.465-0.703 c0.024-0.037,0.048-0.074,0.07-0.112l10-16c0.749-1.16,0.415-2.708-0.745-3.456C145.869,26.295,145.439,26.158,144.995,26.139z M23.111,159.332h43.516l-21.758,36.262L23.111,159.332z M223.111,159.334h43.516l-21.758,36.262L223.111,159.334z M34.915,162.135 c-1.38-0.036-2.529,1.054-2.565,2.434c-0.013,0.503,0.126,0.999,0.399,1.422l10,16c0.701,1.19,2.234,1.586,3.423,0.885 c1.19-0.701,1.586-2.234,0.885-3.423c-0.022-0.038-0.046-0.075-0.07-0.112l-10-16C36.547,162.612,35.766,162.158,34.915,162.135z M234.915,162.137c-1.38-0.036-2.529,1.054-2.565,2.434c-0.013,0.503,0.126,0.999,0.399,1.422l10,16 c0.701,1.19,2.234,1.586,3.423,0.885c1.19-0.701,1.586-2.234,0.885-3.423c-0.022-0.038-0.046-0.075-0.07-0.112l-10-16 C236.547,162.614,235.766,162.16,234.915,162.137z M144.316,169.643c4.418-0.093,8.925,0.99,13.053,3.373 c12.009,6.933,16.084,22.142,9.15,34.15c-6.933,12.009-22.142,16.084-34.15,9.15c-12.009-6.933-16.084-22.142-9.15-34.15 C127.768,174.286,135.881,169.821,144.316,169.643z M144.868,177.182c-4.484,0-8.968,1.705-12.375,5.111 c-0.976,0.977-0.976,2.56,0.001,3.536s2.56,0.976,3.536-0.001c4.902-4.902,12.773-4.902,17.676,0 c0.976,0.977,2.559,0.977,3.536,0.001s0.977-2.559,0.001-3.536C153.837,178.887,149.352,177.182,144.868,177.182z"/> </g> </g>
</svg>